<svg id="Capa_1" enable-background="new 0 0 511.762 511.762" height="30" viewBox="0 0 511.762 511.762" width="30" xmlns="http://www.w3.org/2000/svg"><path d="m23.979 87.325v396.474c0 11.301 9.162 20.463 20.463 20.463h344.71c11.301 0 20.463-9.162 20.463-20.463v-455.7c0-11.301-9.162-20.463-20.463-20.463h-280.682z" fill="#f3eae6"/><path d="m409.61 28.096v455.705c0 11.297-9.161 20.458-20.458 20.458h-25.328c11.307 0 20.469-9.162 20.469-20.458v-455.705c0-11.297-9.162-20.458-20.469-20.458h25.328c11.297 0 20.458 9.161 20.458 20.458z" fill="#e1d3ce"/><path d="m23.979 87.325h64.032c11.299 0 20.458-9.16 20.458-20.458v-59.231z" fill="#cdbfba"/><circle cx="409.615" cy="85.668" fill="#8ac9fe" r="78.168"/><path d="m452.492 69.383-32.772-32.764c-5.723-5.722-15.001-5.721-20.724.001l-32.049 32.05c-5.712 5.712-6.033 15.359-.714 21.439l.001.001c5.319 6.079 14.345 6.38 20.057.668l3.425-3.425c2.191-2.191 5.938-.639 5.938 2.46v34.539c0 8.094 6.561 14.656 14.656 14.656 8.094 0 14.656-6.562 14.656-14.656v-32.649c0-3.099 3.747-4.651 5.938-2.46l.866.866c5.723 5.723 15.002 5.723 20.725 0 5.722-5.723 5.721-15.003-.003-20.726z" fill="#fd4755"/><path d="m456.784 79.749c0 3.746-1.429 7.503-4.286 10.36-5.725 5.725-15.006 5.725-20.731 0l-.869-.869c-2.188-2.188-5.934-.639-5.934 2.468v32.64c0 4.046-1.639 7.713-4.296 10.37-2.647 2.647-6.314 4.286-10.36 4.286-2.797 0-5.405-.779-7.633-2.138 3.996-2.478 6.654-6.913 6.654-11.969v-20.481c0-9.281-1.059-19.102 7.493-25.066 1.728-1.189 3.906-1.449 5.895-2.118 2.637-.889 4.286-2.957 4.965-5.365.659-2.318.41-4.956-.7-7.163-2.398-4.736-6.733-8.272-10.42-11.969-4.096-4.086-8.182-8.182-12.278-12.279-1.639-1.638-3.587-2.797-5.665-3.457l.38-.38c5.725-5.725 14.996-5.725 20.721 0l32.769 32.759c2.866 2.868 4.295 6.615 4.295 10.371z" fill="#fb2b3a"/><path d="m219.194 387.066h-40.296v66.594c0 4.095 4.103 6.919 7.928 5.456l30.282-11.578c1.343-.514 2.829-.514 4.173 0l30.282 11.578c3.825 1.462 7.928-1.362 7.928-5.456v-66.594z" fill="#fb2b3a"/><path d="m259.491 387.067v66.596c0 4.089-4.101 6.917-7.933 5.456l-12.548-4.802c.397-.771.619-1.647.619-2.605v-64.644h19.862z" fill="#e41f2d"/><circle cx="219.194" cy="339.148" fill="#fec165" r="69.677"/><path d="m225.405 302.217 7.425 15.044c.487.987 1.429 1.671 2.518 1.83l16.602 2.412c5.68.825 7.948 7.806 3.838 11.812l-12.014 11.71c-.788.768-1.148 1.875-.962 2.96l2.836 16.535c.97 5.657-4.968 9.971-10.048 7.3l-14.85-7.807c-.974-.512-2.138-.512-3.113 0l-14.85 7.807c-5.081 2.671-11.018-1.643-10.048-7.3l2.836-16.535c.186-1.085-.174-2.192-.962-2.96l-12.014-11.71c-4.11-4.007-1.842-10.987 3.838-11.812l16.602-2.412c1.089-.158 2.031-.843 2.518-1.83l7.425-15.044c2.543-5.147 9.882-5.147 12.423 0z" fill="#fe9901"/><path d="m243.776 345.027c-.794.771-1.145 1.869-.958 2.956l2.827 16.544c.97 5.655-4.965 9.966-10.048 7.29l-14.85-7.804c-.97-.514-2.138-.514-3.108 0l-14.85 7.804c-5.082 2.676-11.018-1.636-10.048-7.29l.643-3.774c.339-.105.678-.257 1.017-.432 2.184-1.15 4.368-2.299 6.552-3.449 3.29-1.732 6.584-3.501 10.075-4.804 2.853-1.065 5.907-1.482 8.938-1.596 3.272-.123 8.107 2.141 10.134-1.623.623-1.158.429-2.776.65-4.034 1.028-5.848 4.378-11.052 8.679-15.164 2.698-2.57 5.301-5.238 7.969-7.838.28-.28.537-.561.748-.865l3.809.561c5.678.818 7.945 7.805 3.832 11.812z" fill="#fb8801"/><path d="m290.563 108.372h-147.532c-4.143 0-7.5 3.358-7.5 7.5s3.357 7.5 7.5 7.5h147.531c4.143 0 7.5-3.358 7.5-7.5s-3.357-7.5-7.499-7.5z"/><path d="m72.082 151.981c0 4.142 3.357 7.5 7.5 7.5h112.924c4.143 0 7.5-3.358 7.5-7.5s-3.357-7.5-7.5-7.5h-112.924c-4.143 0-7.5 3.358-7.5 7.5z"/><path d="m322.93 144.481h-81.841c-4.143 0-7.5 3.358-7.5 7.5s3.357 7.5 7.5 7.5h81.841c4.143 0 7.5-3.358 7.5-7.5s-3.358-7.5-7.5-7.5z"/><path d="m79.582 197.654h112.924c4.143 0 7.5-3.358 7.5-7.5s-3.357-7.5-7.5-7.5h-112.924c-4.143 0-7.5 3.358-7.5 7.5s3.357 7.5 7.5 7.5z"/><path d="m233.589 190.154c0 4.142 3.357 7.5 7.5 7.5h112.923c4.143 0 7.5-3.358 7.5-7.5s-3.357-7.5-7.5-7.5h-112.923c-4.143 0-7.5 3.358-7.5 7.5z"/><path d="m79.582 235.826h112.924c4.143 0 7.5-3.358 7.5-7.5s-3.357-7.5-7.5-7.5h-112.924c-4.143 0-7.5 3.358-7.5 7.5s3.357 7.5 7.5 7.5z"/><path d="m361.512 228.326c0-4.142-3.357-7.5-7.5-7.5h-112.923c-4.143 0-7.5 3.358-7.5 7.5s3.357 7.5 7.5 7.5h112.923c4.142 0 7.5-3.358 7.5-7.5z"/><path d="m409.615 0c-4.557 0-9.028.366-13.394 1.054-2.26-.592-283.266-.969-286.288-.918-6.506.109-9.877 5.125-14.303 9.3-14.618 13.788-29.236 27.575-43.855 41.363-7.132 6.726-14.263 13.453-21.395 20.179-3.88 3.66-13.414 10.177-13.868 15.724-.007.083-.009.165-.013.248-.006.125-.019.249-.019.375v396.474c0 15.419 12.544 27.963 27.963 27.963h269.313c4.143 0 7.5-3.358 7.5-7.5s-3.357-7.5-7.5-7.5h-269.314c-7.147 0-12.963-5.815-12.963-12.963v-388.974h56.532c15.416 0 27.958-12.542 27.958-27.958v-51.73h245.099c-22.403 15.468-37.121 41.308-37.121 70.531 0 44.708 34.432 81.505 78.168 85.319v312.812c0 7.148-5.815 12.963-12.963 12.963h-40.329c-4.143 0-7.5 3.358-7.5 7.5s3.357 7.5 7.5 7.5h40.329c15.419 0 27.963-12.544 27.963-27.963v-312.812c43.736-3.814 78.167-40.611 78.167-85.319 0-47.238-38.429-85.668-85.667-85.668zm-308.645 66.866c0 7.146-5.813 12.958-12.958 12.958h-45.15l58.108-54.804zm308.645 89.469c-38.967 0-70.668-31.701-70.668-70.667s31.701-70.668 70.668-70.668c38.966 0 70.667 31.701 70.667 70.667s-31.701 70.668-70.667 70.668z"/><path d="m457.795 64.079-32.772-32.764c-8.636-8.634-22.69-8.636-31.33.001l-32.049 32.049c-8.462 8.462-8.935 22.674-1.054 31.683 3.955 4.519 9.38 7.116 15.276 7.313 4.414.143 8.653-1.067 12.288-3.467v25.457c0 12.217 9.938 22.156 22.155 22.156s22.155-9.939 22.155-22.156v-24.667c8.255 3.993 18.492 2.569 25.332-4.271 4.185-4.185 6.489-9.749 6.489-15.667 0-5.919-2.305-11.483-6.49-15.667zm-10.606 20.728c-2.788 2.79-7.328 2.789-10.114.003l-.869-.87c-3.152-3.151-7.847-4.083-11.965-2.379-4.116 1.706-6.776 5.687-6.776 10.143v32.648c0 3.946-3.21 7.156-7.155 7.156s-7.155-3.21-7.155-7.156v-34.539c0-4.456-2.66-8.437-6.776-10.143-1.367-.566-2.797-.841-4.214-.841-2.851 0-5.646 1.116-7.752 3.221l-3.425 3.425c-1.278 1.279-2.925 1.963-4.622 1.895-1.702-.057-3.296-.838-4.487-2.199-2.738-3.129-2.567-8.257.373-11.197l32.048-32.049c2.791-2.79 7.329-2.79 10.118 0l32.772 32.764c1.352 1.351 2.097 3.148 2.097 5.059s-.746 3.707-2.098 5.059z"/><path d="m219.194 261.972c-17.908 0-35.361 6.274-49.143 17.666-3.192 2.639-3.642 7.367-1.002 10.559 2.638 3.193 7.365 3.641 10.559 1.002 11.1-9.175 25.158-14.228 39.586-14.228 34.284 0 62.177 27.893 62.177 62.177s-27.893 62.177-62.177 62.177-62.177-27.893-62.177-62.177c0-7.906 1.462-15.605 4.344-22.883 1.525-3.851-.359-8.209-4.211-9.735-3.849-1.525-8.209.36-9.734 4.211-3.582 9.044-5.398 18.601-5.398 28.407 0 24.515 11.504 46.381 29.381 60.528v53.983c0 4.392 2.16 8.5 5.777 10.99 3.618 2.491 8.227 3.041 12.329 1.472l29.689-11.352 29.689 11.352c1.544.59 3.158.88 4.765.88 2.665 0 5.308-.799 7.564-2.352 3.617-2.49 5.777-6.598 5.777-10.99v-53.983c17.877-14.147 29.381-36.013 29.381-60.528.001-42.555-34.62-77.176-77.176-77.176zm32.796 189.278-28.03-10.717c-1.537-.588-3.151-.882-4.766-.882s-3.229.294-4.765.881l-28.031 10.718v-42.26c9.96 4.696 21.074 7.335 32.796 7.335s22.836-2.639 32.796-7.335z"/><path d="m264.674 323.899c-1.71-5.26-6.172-9.022-11.646-9.817l-14.44-2.099-6.458-13.085c-2.447-4.96-7.404-8.042-12.936-8.042s-10.488 3.081-12.936 8.041l-6.458 13.085-14.44 2.099c-5.474.795-9.936 4.557-11.646 9.817-1.709 5.261-.31 10.927 3.65 14.787l10.449 10.186-2.466 14.382c-.936 5.452 1.263 10.858 5.738 14.109 2.528 1.837 5.486 2.771 8.465 2.771 2.293 0 4.598-.553 6.727-1.672l12.916-6.791 12.916 6.791c4.895 2.574 10.717 2.153 15.191-1.098 4.476-3.251 6.674-8.658 5.738-14.109l-2.466-14.382 10.449-10.186c3.962-3.86 5.362-9.526 3.653-14.787zm-26.136 15.758c-2.554 2.491-3.72 6.078-3.117 9.598l2.639 15.388-13.819-7.266c-1.58-.83-3.313-1.245-5.046-1.245-1.732 0-3.467.416-5.047 1.246l-13.818 7.265 2.639-15.385c.604-3.518-.561-7.107-3.118-9.602l-11.18-10.897 15.448-2.245c3.533-.513 6.587-2.731 8.167-5.933l6.909-14 6.909 14c1.58 3.202 4.634 5.419 8.166 5.932l15.449 2.245z"/></svg>